<?xml version="1.0" standalone="no"?>
<!DOCTYPE svg PUBLIC "-//W3C//DTD SVG 20010904//EN"
 "http://www.w3.org/TR/2001/REC-SVG-20010904/DTD/svg10.dtd">
<svg version="1.0" xmlns="http://www.w3.org/2000/svg"
 width="400.000000pt" height="400.000000pt" viewBox="0 0 400.000000 400.000000"
 preserveAspectRatio="xMidYMid meet">
<metadata>
Created by potrace 1.14, written by Peter Selinger 2001-2017
</metadata>
<g transform="translate(0.000000,400.000000) scale(0.100000,-0.100000)"
fill="#000000" stroke="none">
<path d="M0 2000 l0 -2000 2000 0 2000 0 0 2000 0 2000 -2000 0 -2000 0 0
-2000z m2209 1595 c372 -61 620 -317 657 -677 l6 -68 -194 0 -195 0 -6 60
c-15 164 -136 298 -314 346 -72 19 -251 21 -324 4 -158 -37 -268 -145 -325
-320 -17 -51 -19 -112 -22 -775 -3 -749 0 -826 38 -928 42 -111 152 -222 258
-260 72 -26 194 -37 292 -26 194 21 333 148 380 344 7 29 14 171 17 338 l5
287 -241 0 -241 0 0 165 0 165 430 0 430 0 0 -805 0 -805 -170 0 -170 0 0 238
0 237 -33 -80 c-96 -232 -253 -367 -477 -411 -100 -20 -301 -14 -390 10 -243
68 -409 255 -483 544 -22 86 -22 92 -22 922 0 830 0 835 22 922 81 317 322
527 661 577 96 14 311 12 411 -4z"/>
</g>
</svg>
